<?xml version="1.0" encoding="utf-8"?>
<!-- Generator: Adobe Illustrator 16.0.0, SVG Export Plug-In . SVG Version: 6.00 Build 0)  -->
<!DOCTYPE svg PUBLIC "-//W3C//DTD SVG 1.1//EN" "http://www.w3.org/Graphics/SVG/1.1/DTD/svg11.dtd">
<svg version="1.1" id="Cerody" xmlns="http://www.w3.org/2000/svg" xmlns:xlink="http://www.w3.org/1999/xlink" x="0px" y="0px"
	 width="992.126px" height="425.197px" viewBox="0 0 992.126 425.197" enable-background="new 0 0 992.126 425.197"
	 xml:space="preserve">
<g id="Cerody_1_">
	<g id="y">
		<path id="Logo" fill="#FF5B35" stroke="#FF5B35" stroke-width="0.576" stroke-miterlimit="10" d="M945.541,192.852
			c-12.498,0-22.869,5.614-30.359,13.628c-11.271,11.179-22.732,31.396-37.6,50.431c6.066-15.811,37.518-56.467,37.518-114.962
			c-15.377,15.372-37.807,21.823-55.914,25.706c3.623,29.114,8.883,62.895-0.822,83.928c-8.336,18.069-22.951,35.874-48.951,35.874
			c-27.133,0-44.529-34.204-43.215-69.065c0.592-15.689,17.584-61.773,51.018-56.883c12.303,2.067,17.25,19.422,11.582,31.344
			c-3.098,6.515-12.588,15.741-24.707,21.743l0,0l11.277,22.988c1.004-0.333,41.658-10.807,36.361-53.284
			c-1.557-12.475-11.861-34.26-38.723-36.188c-37.07-2.969-75.377,40.242-76.455,74.449c-2.305,72.929,52.016,85.052,74.875,85.052
			c15.238,0,35.984-10.848,42.322-23.318c-6.832,17.449-18.959,44.633-27.129,64.053c-6.531-9.633-19.045-16.111-32.748-16.111
			c-20.678,0-37.438,14.699-37.438,32.83c0,18.133,16.76,32.832,37.438,32.832c14.578,0,28.516-8.363,34.611-20.492
			c-0.318,0-0.105,0.031,0,0c28.049-59.961,29.396-73.305,80.963-143.009c4.359,13.904,18.861,24.115,36.096,24.115
			c19.141,0,37.438-14.699,37.438-32.83S966.219,192.852,945.541,192.852z M817.549,366.603
			c-1.859,11.082-13.621,18.352-26.275,16.232c-12.652-2.125-21.402-12.826-19.547-23.916c1.859-11.08,13.619-18.35,26.275-16.229
			C810.654,344.815,819.404,355.519,817.549,366.603z M969.029,232.98c-1.861,11.08-13.623,18.35-26.275,16.23
			c-12.654-2.127-21.402-12.828-19.549-23.914c1.861-11.082,13.623-18.352,26.275-16.231
			C962.135,211.19,970.885,221.893,969.029,232.98z"/>
	</g>
	<path id="d" fill="#FF5B35" stroke="#FF5B35" stroke-miterlimit="10" d="M696.178,84.276c1.727,32.479,2.576,78.649,3.871,112.142
		c-17.348-10.354-41.795-11.355-63.354-1.291c-32.529,15.187-48.102,50.619-34.785,79.146c13.318,28.525,50.482,39.338,83.01,24.152
		c22.936-10.707,38.721-34.101,39.398-57.659c0.059-72.97-3.014-108.48,2.393-162.435C716.031,79.9,696.76,84.242,696.178,84.276z
		 M699.188,231.805c5.213,18.799-7.949,38.874-29.416,44.831c-21.467,5.951-43.092-4.459-48.316-23.265
		c-5.213-18.799,7.951-38.873,29.416-44.832C672.34,202.588,693.963,212.999,699.188,231.805z"/>
	<path id="o" fill="#FF5B35" stroke="#FF5B35" stroke-width="1.0406" stroke-miterlimit="10" d="M521.357,187.184
		c-10.924,0.001-36.287,9.281-51.424,24.417c-18.627,18.625-15.324,44.267-12.941,53.129c8.779,23.842,34.268,41.086,64.365,41.086
		c34.58,0,67.641-26.557,67.641-59.315C588.998,213.74,558.717,187.184,521.357,187.184z M563.795,259.684
		c-3.361,20.022-24.609,33.155-47.473,29.325c-22.861-3.84-38.67-23.174-35.318-43.206c3.361-20.021,24.609-33.154,47.471-29.325
		C551.338,220.317,567.145,239.652,563.795,259.684z"/>
	<path id="r" fill="#FF5B35" stroke="#FF5B35" stroke-width="0.6357" stroke-miterlimit="10" d="M412.129,304.956
		c0.947-18.082,11.162-84.188,12.641-87.109c3.039-10.497,8.717-20.371,19.654-24.214c9.854-3.455,20.131-1.269,26.504,4.807
		c5.025-1.963,10.031-3.982,15.068-5.918c-0.115-0.224-0.219-0.451-0.342-0.672c-9.658-17.525-33.689-22.805-53.676-11.789
		c-12.082,6.658-19.115,17.609-22.084,29.345c-4.941,16.811-5.25,42.458-9.479,68.775c-2.559-18.513,6.184-74.566-24.977-131.106
		c-6.676,23.051-24.918,41.234-40.354,54.633c19.012,26.213,42.092,56.063,43.914,81.563c0.596,8.295,0.977,13.746-0.986,22.154"/>
	<path id="e" fill="#FF5B35" stroke="#FF5B35" stroke-width="0.5737" stroke-miterlimit="10" d="M319.386,269.595
		c-8.538,9.393-20.192,16.141-36.165,16.141c-27.025,0-44.353-34.065-43.045-68.792c0.592-15.627,17.516-61.528,50.818-56.658
		c12.254,2.061,17.183,19.346,11.537,31.221c-3.088,6.489-12.541,15.68-24.611,21.657l11.232,22.896
		c1.001-0.331,41.496-10.763,36.219-53.073c-1.551-12.426-11.814-34.125-38.57-36.045c-36.924-2.956-75.08,40.084-76.152,74.156
		c-2.295,72.642,51.811,84.718,74.58,84.718c13.548,0,31.458-8.611,39.639-19.297C323.84,283.796,319.525,270.063,319.386,269.595z"
		/>
	<path id="C" fill="#FF5B35" stroke="#FF5B35" stroke-miterlimit="10" d="M139.271,304.481c24.918,0,58.313-16.711,71.307-36.748
		c-7.398-5.411-13.811-11.349-21.651-16.944c-13.671,11.262-31.035,18.692-53.155,18.692c-47.107,0-77.311-59.378-75.03-119.909
		c1.03-27.24,30.529-107.25,88.58-98.76c11.347,1.907,19.091,11.304,22.382,22.798c18.165,0.425,22.894,0.858,33.477,0.858
		c-7.787-20.574-26.678-44.298-63.168-46.917C77.648,22.399,11.14,97.422,9.27,156.813C5.27,283.433,99.58,304.481,139.271,304.481z
		"/>
</g>
</svg>
