<?xml version="1.0" encoding="utf-8"?>
<!-- Generator: Adobe Illustrator 16.0.0, SVG Export Plug-In . SVG Version: 6.00 Build 0)  -->
<!DOCTYPE svg PUBLIC "-//W3C//DTD SVG 1.1//EN" "http://www.w3.org/Graphics/SVG/1.1/DTD/svg11.dtd">
<svg version="1.1" id="Layer_3" xmlns="http://www.w3.org/2000/svg" xmlns:xlink="http://www.w3.org/1999/xlink" x="0px" y="0px"
	 width="448.477px" height="460.477px" viewBox="0 0 448.477 460.477" enable-background="new 0 0 448.477 460.477"
	 xml:space="preserve">
<g>
	<path fill="#FF5B35" stroke="#FF5B35" stroke-miterlimit="10" d="M376.107,97.154c-21.699,0-39.707,9.747-52.709,23.66
		c-19.57,19.41-39.471,54.51-65.281,87.56c10.531-27.45,65.141-98.04,65.141-199.6c-26.699,26.69-65.641,37.89-97.08,44.63
		c6.291,50.55,15.42,109.2-1.43,145.72c-14.471,31.37-39.848,62.28-84.991,62.28c-47.107,0-77.31-59.38-75.03-119.91
		c1.03-27.24,30.53-107.25,88.58-98.76c21.36,3.59,29.95,33.72,20.11,54.42c-5.38,11.31-21.86,27.33-42.9,37.75l0,0l19.58,39.91
		c1.745-0.578,72.33-18.76,63.131-92.51c-2.701-21.66-20.592-59.483-67.231-62.83c-64.361-5.153-130.87,69.87-132.74,129.26
		c-4,126.62,90.31,147.67,130,147.67c26.456,0,62.477-18.836,73.481-40.49c-11.861,30.3-32.921,77.49-47.101,111.21
		c-11.34-16.72-33.07-27.97-56.86-27.97c-35.9,0-65,25.52-65,57s29.1,57,65,57c25.31,0,49.51-14.52,60.09-35.58
		c-0.55,0-0.18,0.06,0,0c48.701-104.1,51.041-127.27,140.57-248.29c7.57,24.14,32.75,41.87,62.67,41.87c33.23,0,65-25.52,65-57
		C441.107,122.674,412.007,97.154,376.107,97.154z M153.887,398.824c-3.23,19.24-23.65,31.86-45.62,28.18
		c-21.97-3.689-37.16-22.27-33.94-41.52c3.23-19.24,23.65-31.86,45.62-28.18C141.917,360.994,157.107,379.574,153.887,398.824z
		 M416.888,166.824c-3.23,19.24-23.65,31.86-45.621,28.18c-21.969-3.689-37.16-22.27-33.939-41.52
		c3.23-19.24,23.65-31.86,45.619-28.18C404.917,128.994,420.107,147.574,416.888,166.824z"/>
</g>
</svg>
